# xmcd CD database file
#
# Track frame offsets:
#	150
#	12940
#	23757
#	36343
#	48081
#	63398
#	76058
#	86648
#	102627
#	122934
#	137500
#	150947
#	161769
#	173323
#	187699
#
# Disc length: 2626 seconds
#
# Revision: 0
# Processed by: cddbd v1.4PL0 Copyright (c) Steve Scherf et al.
# Submitted via: CDex 1.50
#
DISCID=aa0a400f
DTITLE=The Five Blind Boys Of Alabama featuring Clarence Fountain - I Saw The Light
DYEAR=1900
DGENRE=Blues
TTITLE0=Something's Got A Hold On Me
TTITLE1=Set Down, Rest Awhile
TTITLE2=Love, Love, Love
TTITLE3=Save A Seat For Me
TTITLE4=Lord, I Tried
TTITLE5=I Saw The Light
TTITLE6=Running For My Life
TTITLE7=I Can See Everbody's Mother
TTITLE8=Father, I Stretch My Hands To Thee
TTITLE9=So Sweet To Be Saved
TTITLE10=Send It On Down
TTITLE11=Must Jesus Bear The Cross Alone
TTITLE12=Let Me Hear My Mother Pray Again
TTITLE13=Steal Away
TTITLE14=What He's Done For Me
EXTD=
EXTT0=
EXTT1=
EXTT2=
EXTT3=
EXTT4=
EXTT5=
EXTT6=
EXTT7=
EXTT8=
EXTT9=
EXTT10=
EXTT11=
EXTT12=
EXTT13=
EXTT14=
PLAYORDER=
